<svg xmlns="http://www.w3.org/2000/svg" version="1.1" xmlns:xlink="http://www.w3.org/1999/xlink" xmlns:svgjs="http://svgjs.dev/svgjs" viewBox="0 0 9.219713584559996 1.7965447565497152"><g transform="matrix(1,0,0,1,1.690024257644572,0.3432723782748577)"><rect width="9.219713584559996" height="9.219713584559996" x="-1.6900242576445716" y="-4.054856792279998" fill="#343432"></rect><g><path d=" M 0.2205 1.1099999999999999 Q 0.1785 1.1099999999999999 0.1455 1.0837499999999998 Q 0.1125 1.0574999999999999 0.1125 1.0185 L 0.1125 0.15149999999999986 Q 0.1125 0.11249999999999982 0.13875 0.08624999999999994 Q 0.165 0.05999999999999983 0.20400000000000001 0.05999999999999983 L 0.636 0.05999999999999983 Q 0.714 0.05999999999999983 0.78225 0.10124999999999984 Q 0.8505 0.14249999999999985 0.8925000000000001 0.21524999999999983 Q 0.9345 0.2879999999999998 0.9345 0.38249999999999984 Q 0.9345 0.4394999999999999 0.91125 0.4934999999999998 Q 0.888 0.5474999999999999 0.8482500000000001 0.5909999999999999 Q 0.8085 0.6344999999999998 0.759 0.6584999999999999 L 0.7605000000000001 0.6239999999999999 Q 0.8025 0.6464999999999999 0.83025 0.6772499999999999 Q 0.858 0.7079999999999999 0.87375 0.7432499999999999 Q 0.8895000000000001 0.7784999999999999 0.8925000000000001 0.819 Q 0.8985 0.8564999999999998 0.90075 0.8849999999999999 Q 0.903 0.9134999999999999 0.9097500000000001 0.9329999999999998 Q 0.9165 0.9524999999999999 0.936 0.9629999999999999 Q 0.969 0.9824999999999999 0.9772500000000001 1.01925 Q 0.9855 1.0559999999999998 0.96 1.0844999999999998 Q 0.9435 1.1039999999999999 0.918 1.1092499999999998 Q 0.8925000000000001 1.1144999999999998 0.867 1.1092499999999998 Q 0.8415 1.1039999999999999 0.8250000000000001 1.095 Q 0.7995 1.0799999999999998 0.774 1.0507499999999999 Q 0.7485 1.0214999999999999 0.73275 0.9719999999999999 Q 0.717 0.9224999999999999 0.717 0.8444999999999998 Q 0.717 0.819 0.708 0.7972499999999998 Q 0.6990000000000001 0.7754999999999999 0.6825 0.7597499999999999 Q 0.666 0.7439999999999999 0.6405 0.7357499999999999 Q 0.615 0.7274999999999998 0.5805 0.7274999999999998 L 0.2775 0.7274999999999998 L 0.3 0.6929999999999998 L 0.3 1.0185 Q 0.3 1.0574999999999999 0.279 1.0837499999999998 Q 0.258 1.1099999999999999 0.2205 1.1099999999999999 M 0.279 0.5729999999999998 L 0.6285000000000001 0.5729999999999998 Q 0.6555 0.5729999999999998 0.681 0.5482499999999999 Q 0.7065 0.5234999999999999 0.723 0.4807499999999999 Q 0.7395 0.43799999999999983 0.7395 0.3869999999999999 Q 0.7395 0.32099999999999984 0.70425 0.27674999999999983 Q 0.669 0.23249999999999982 0.6285000000000001 0.23249999999999982 L 0.28200000000000003 0.23249999999999982 L 0.3 0.1844999999999999 L 0.3 0.6089999999999999 L 0.279 0.5729999999999998 M 1.50601025390625 1.1249999999999998 Q 1.3785102539062501 1.1249999999999998 1.2847602539062501 1.07175 Q 1.1910102539062501 1.0185 1.14076025390625 0.9269999999999998 Q 1.0905102539062501 0.8354999999999999 1.0905102539062501 0.7199999999999999 Q 1.0905102539062501 0.5849999999999999 1.1452602539062502 0.4897499999999999 Q 1.20001025390625 0.39449999999999985 1.28851025390625 0.3434999999999998 Q 1.37701025390625 0.29249999999999987 1.47601025390625 0.29249999999999987 Q 1.55251025390625 0.29249999999999987 1.62076025390625 0.32399999999999984 Q 1.6890102539062501 0.3554999999999998 1.7415102539062501 0.4102499999999999 Q 1.7940102539062501 0.46499999999999986 1.8247602539062502 0.5369999999999998 Q 1.85551025390625 0.6089999999999999 1.85551025390625 0.69 Q 1.8540102539062502 0.7259999999999999 1.8270102539062503 0.7484999999999999 Q 1.8000102539062501 0.7709999999999999 1.76401025390625 0.7709999999999999 L 1.1910102539062501 0.7709999999999999 L 1.1460102539062502 0.6209999999999999 L 1.6965102539062502 0.6209999999999999 L 1.6635102539062503 0.6509999999999998 L 1.6635102539062503 0.6104999999999998 Q 1.6605102539062502 0.5669999999999998 1.63276025390625 0.5324999999999999 Q 1.6050102539062503 0.4979999999999999 1.56376025390625 0.4777499999999999 Q 1.52251025390625 0.4574999999999999 1.47601025390625 0.4574999999999999 Q 1.4310102539062501 0.4574999999999999 1.3920102539062502 0.4694999999999999 Q 1.35301025390625 0.4814999999999998 1.32451025390625 0.5099999999999999 Q 1.2960102539062501 0.5384999999999999 1.2795102539062502 0.5864999999999999 Q 1.2630102539062502 0.6344999999999998 1.2630102539062502 0.7079999999999999 Q 1.2630102539062502 0.7889999999999999 1.2967602539062502 0.8452499999999998 Q 1.33051025390625 0.9014999999999999 1.3837602539062501 0.9307499999999999 Q 1.4370102539062501 0.9599999999999999 1.4970102539062502 0.9599999999999999 Q 1.55251025390625 0.9599999999999999 1.58551025390625 0.9509999999999998 Q 1.6185102539062501 0.9419999999999998 1.6387602539062502 0.9292499999999999 Q 1.6590102539062501 0.9164999999999999 1.6755102539062503 0.9074999999999999 Q 1.70251025390625 0.8939999999999999 1.72651025390625 0.8939999999999999 Q 1.7595102539062502 0.8939999999999999 1.78126025390625 0.9164999999999999 Q 1.8030102539062502 0.9389999999999998 1.8030102539062502 0.9689999999999999 Q 1.8030102539062502 1.0094999999999998 1.76101025390625 1.0425 Q 1.7220102539062503 1.0755 1.6515102539062503 1.10025 Q 1.5810102539062503 1.1249999999999998 1.50601025390625 1.1249999999999998 M 2.0295358886718753 0.3224999999999999 L 2.3850358886718754 0.3224999999999999 Q 2.4210358886718755 0.3224999999999999 2.4450358886718755 0.3464999999999998 Q 2.4690358886718755 0.37049999999999983 2.4690358886718755 0.40649999999999986 Q 2.4690358886718755 0.44099999999999984 2.4450358886718755 0.46424999999999983 Q 2.4210358886718755 0.4874999999999998 2.3850358886718754 0.4874999999999998 L 2.0295358886718753 0.4874999999999998 Q 1.9935358886718753 0.4874999999999998 1.9695358886718752 0.4634999999999999 Q 1.9455358886718752 0.4394999999999999 1.9455358886718752 0.40349999999999986 Q 1.9455358886718752 0.3689999999999999 1.9695358886718752 0.3457499999999999 Q 1.9935358886718753 0.3224999999999999 2.0295358886718753 0.3224999999999999 M 2.190035888671875 0.1349999999999999 Q 2.2290358886718753 0.1349999999999999 2.2537858886718753 0.1612499999999999 Q 2.2785358886718754 0.1874999999999999 2.2785358886718754 0.2264999999999998 L 2.2785358886718754 0.8939999999999999 Q 2.2785358886718754 0.9149999999999998 2.2867858886718753 0.9284999999999999 Q 2.295035888671875 0.9419999999999998 2.3092858886718752 0.9479999999999998 Q 2.3235358886718753 0.9539999999999998 2.340035888671875 0.9539999999999998 Q 2.3580358886718753 0.9539999999999998 2.3730358886718754 0.9472499999999999 Q 2.388035888671875 0.9404999999999999 2.4075358886718754 0.9404999999999999 Q 2.4285358886718753 0.9404999999999999 2.4457858886718755 0.9599999999999999 Q 2.4630358886718753 0.9794999999999998 2.4630358886718753 1.0139999999999998 Q 2.4630358886718753 1.0559999999999998 2.4172858886718753 1.083 Q 2.3715358886718754 1.1099999999999999 2.319035888671875 1.1099999999999999 Q 2.2875358886718753 1.1099999999999999 2.249285888671875 1.10475 Q 2.2110358886718755 1.0995 2.177285888671875 1.0792499999999998 Q 2.143535888671875 1.059 2.121035888671875 1.017 Q 2.0985358886718752 0.9749999999999999 2.0985358886718752 0.9014999999999999 L 2.0985358886718752 0.2264999999999998 Q 2.0985358886718752 0.1874999999999999 2.1247858886718753 0.1612499999999999 Q 2.1510358886718755 0.1349999999999999 2.190035888671875 0.1349999999999999 M 3.2985307617187503 0.29249999999999987 Q 3.3375307617187504 0.29249999999999987 3.3630307617187505 0.31799999999999984 Q 3.3885307617187506 0.3434999999999998 3.3885307617187506 0.3839999999999999 L 3.3885307617187506 1.0185 Q 3.3885307617187506 1.0574999999999999 3.3630307617187505 1.0837499999999998 Q 3.3375307617187504 1.1099999999999999 3.2985307617187503 1.1099999999999999 Q 3.25953076171875 1.1099999999999999 3.2340307617187505 1.0837499999999998 Q 3.2085307617187504 1.0574999999999999 3.2085307617187504 1.0185 L 3.2085307617187504 0.9449999999999998 L 3.2415307617187503 0.9584999999999999 Q 3.2415307617187503 0.9779999999999999 3.2205307617187504 1.00575 Q 3.1995307617187505 1.0334999999999999 3.1635307617187505 1.0604999999999998 Q 3.1275307617187504 1.0875 3.0787807617187504 1.10625 Q 3.0300307617187503 1.1249999999999998 2.9730307617187504 1.1249999999999998 Q 2.8695307617187504 1.1249999999999998 2.7855307617187504 1.07175 Q 2.7015307617187503 1.0185 2.65278076171875 0.9247499999999998 Q 2.6040307617187506 0.8309999999999998 2.6040307617187506 0.7094999999999998 Q 2.6040307617187506 0.5864999999999999 2.65278076171875 0.4927499999999999 Q 2.7015307617187503 0.3989999999999999 2.7840307617187503 0.3457499999999999 Q 2.8665307617187503 0.29249999999999987 2.9670307617187506 0.29249999999999987 Q 3.0315307617187504 0.29249999999999987 3.0855307617187506 0.31199999999999983 Q 3.1395307617187505 0.3314999999999999 3.1792807617187506 0.3614999999999998 Q 3.2190307617187504 0.39149999999999985 3.2407807617187503 0.4222499999999999 Q 3.2625307617187502 0.45299999999999985 3.2625307617187502 0.47399999999999987 L 3.2085307617187504 0.4934999999999998 L 3.2085307617187504 0.3839999999999999 Q 3.2085307617187504 0.34499999999999986 3.2340307617187505 0.31874999999999987 Q 3.25953076171875 0.29249999999999987 3.2985307617187503 0.29249999999999987 M 2.9955307617187503 0.9599999999999999 Q 3.0615307617187506 0.9599999999999999 3.1110307617187503 0.9269999999999998 Q 3.1605307617187504 0.8939999999999999 3.1882807617187505 0.8369999999999999 Q 3.2160307617187502 0.7799999999999998 3.2160307617187502 0.7094999999999998 Q 3.2160307617187502 0.6374999999999998 3.1882807617187505 0.5804999999999999 Q 3.1605307617187504 0.5234999999999999 3.1110307617187503 0.4904999999999998 Q 3.0615307617187506 0.4574999999999999 2.9955307617187503 0.4574999999999999 Q 2.9310307617187505 0.4574999999999999 2.8815307617187504 0.4904999999999998 Q 2.8320307617187503 0.5234999999999999 2.8042807617187506 0.5804999999999999 Q 2.7765307617187505 0.6374999999999998 2.7765307617187505 0.7094999999999998 Q 2.7765307617187505 0.7799999999999998 2.8042807617187506 0.8369999999999999 Q 2.8320307617187503 0.8939999999999999 2.8815307617187504 0.9269999999999998 Q 2.9310307617187505 0.9599999999999999 2.9955307617187503 0.9599999999999999 M 3.7680095214843754 1.0185 Q 3.7680095214843754 1.0574999999999999 3.7425095214843753 1.0837499999999998 Q 3.7170095214843757 1.1099999999999999 3.6780095214843755 1.1099999999999999 Q 3.6390095214843754 1.1099999999999999 3.6135095214843753 1.0837499999999998 Q 3.5880095214843757 1.0574999999999999 3.5880095214843757 1.0185 L 3.5880095214843757 0.3989999999999999 Q 3.5880095214843757 0.3599999999999999 3.6135095214843753 0.3337499999999999 Q 3.6390095214843754 0.3074999999999999 3.6780095214843755 0.3074999999999999 Q 3.7170095214843757 0.3074999999999999 3.7425095214843753 0.3337499999999999 Q 3.7680095214843754 0.3599999999999999 3.7680095214843754 0.3989999999999999 L 3.7680095214843754 1.0185 M 3.6765095214843755 0.20999999999999985 Q 3.6255095214843753 0.20999999999999985 3.6045095214843754 0.1934999999999999 Q 3.5835095214843755 0.17699999999999982 3.5835095214843755 0.1349999999999999 L 3.5835095214843755 0.10649999999999982 Q 3.5835095214843755 0.06299999999999994 3.6067595214843755 0.04724999999999979 Q 3.6300095214843755 0.03149999999999986 3.6780095214843755 0.03149999999999986 Q 3.7305095214843753 0.03149999999999986 3.7515095214843757 0.04799999999999982 Q 3.7725095214843756 0.06449999999999978 3.7725095214843756 0.10649999999999982 L 3.7725095214843756 0.1349999999999999 Q 3.7725095214843756 0.17849999999999988 3.7500095214843756 0.1942499999999998 Q 3.7275095214843756 0.20999999999999985 3.6765095214843755 0.20999999999999985 M 4.162543945312501 1.0185 Q 4.162543945312501 1.0574999999999999 4.1362939453125005 1.0837499999999998 Q 4.1100439453125 1.1099999999999999 4.071043945312501 1.1099999999999999 Q 4.033543945312501 1.1099999999999999 4.008043945312501 1.0837499999999998 Q 3.9825439453125004 1.0574999999999999 3.9825439453125004 1.0185 L 3.9825439453125004 0.09149999999999991 Q 3.9825439453125004 0.05249999999999977 4.008793945312501 0.026249999999999885 Q 4.0350439453125 -2.220446049250313e-16 4.074043945312501 -2.220446049250313e-16 Q 4.1130439453125005 -2.220446049250313e-16 4.1377939453125006 0.026249999999999885 Q 4.162543945312501 0.05249999999999977 4.162543945312501 0.09149999999999991 L 4.162543945312501 1.0185 M 4.498573242187501 0.05999999999999983 Q 4.534573242187501 0.05999999999999983 4.5623232421875 0.08624999999999994 Q 4.590073242187501 0.11249999999999982 4.590073242187501 0.15149999999999986 L 4.590073242187501 1.0185 Q 4.590073242187501 1.0574999999999999 4.5615732421875 1.0837499999999998 Q 4.533073242187501 1.1099999999999999 4.4955732421875005 1.1099999999999999 Q 4.453573242187501 1.1099999999999999 4.428073242187501 1.0837499999999998 Q 4.402573242187501 1.0574999999999999 4.402573242187501 1.0185 L 4.402573242187501 0.15149999999999986 Q 4.402573242187501 0.11249999999999982 4.429573242187501 0.08624999999999994 Q 4.456573242187501 0.05999999999999983 4.498573242187501 0.05999999999999983 M 5.163073242187501 0.05999999999999983 Q 5.205073242187501 0.05999999999999983 5.230573242187501 0.08624999999999994 Q 5.256073242187501 0.11249999999999982 5.256073242187501 0.15149999999999986 L 5.256073242187501 1.0185 Q 5.256073242187501 1.0574999999999999 5.229823242187501 1.0837499999999998 Q 5.203573242187501 1.1099999999999999 5.160073242187501 1.1099999999999999 Q 5.1240732421875 1.1099999999999999 5.096323242187501 1.0837499999999998 Q 5.068573242187501 1.0574999999999999 5.068573242187501 1.0185 L 5.068573242187501 0.15149999999999986 Q 5.068573242187501 0.11249999999999982 5.097073242187501 0.08624999999999994 Q 5.1255732421875 0.05999999999999983 5.163073242187501 0.05999999999999983 M 4.4940732421875005 0.49649999999999983 L 5.163073242187501 0.49649999999999983 L 5.163073242187501 0.6689999999999998 L 4.4940732421875005 0.6689999999999998 L 4.4940732421875005 0.49649999999999983 M 6.076564453125 0.3074999999999999 Q 6.115564453125001 0.3074999999999999 6.141064453125001 0.3337499999999999 Q 6.166564453125001 0.3599999999999999 6.166564453125001 0.3989999999999999 L 6.166564453125001 0.7799999999999998 Q 6.166564453125001 0.9389999999999998 6.078064453125 1.0319999999999998 Q 5.989564453125 1.1249999999999998 5.823064453125 1.1249999999999998 Q 5.656564453125 1.1249999999999998 5.568814453125 1.0319999999999998 Q 5.481064453125001 0.9389999999999998 5.481064453125001 0.7799999999999998 L 5.481064453125001 0.3989999999999999 Q 5.481064453125001 0.3599999999999999 5.506564453125001 0.3337499999999999 Q 5.532064453125001 0.3074999999999999 5.571064453125 0.3074999999999999 Q 5.610064453125 0.3074999999999999 5.635564453125 0.3337499999999999 Q 5.661064453125 0.3599999999999999 5.661064453125 0.3989999999999999 L 5.661064453125 0.7799999999999998 Q 5.661064453125 0.8714999999999998 5.701564453125 0.9157499999999998 Q 5.742064453125001 0.9599999999999999 5.823064453125 0.9599999999999999 Q 5.905564453125001 0.9599999999999999 5.946064453125 0.9157499999999998 Q 5.986564453125 0.8714999999999998 5.986564453125 0.7799999999999998 L 5.986564453125 0.3989999999999999 Q 5.986564453125 0.3599999999999999 6.012064453125 0.3337499999999999 Q 6.037564453125 0.3074999999999999 6.076564453125 0.3074999999999999 M 6.792027099609375 0.29249999999999987 Q 6.897027099609375 0.29249999999999987 6.980277099609375 0.3457499999999999 Q 7.0635270996093755 0.3989999999999999 7.112277099609376 0.4919999999999999 Q 7.161027099609375 0.5849999999999999 7.161027099609375 0.7079999999999999 Q 7.161027099609375 0.8309999999999998 7.112277099609376 0.9247499999999998 Q 7.0635270996093755 1.0185 6.981777099609375 1.07175 Q 6.900027099609375 1.1249999999999998 6.798027099609375 1.1249999999999998 Q 6.738027099609375 1.1249999999999998 6.685527099609375 1.1055 Q 6.633027099609375 1.0859999999999999 6.5932770996093755 1.0559999999999998 Q 6.553527099609375 1.0259999999999998 6.531777099609375 0.9952499999999999 Q 6.510027099609375 0.9644999999999999 6.510027099609375 0.9434999999999999 L 6.556527099609375 0.9239999999999999 L 6.556527099609375 1.0334999999999999 Q 6.556527099609375 1.0724999999999998 6.531027099609375 1.09875 Q 6.505527099609375 1.1249999999999998 6.466527099609375 1.1249999999999998 Q 6.427527099609375 1.1249999999999998 6.402027099609375 1.0995 Q 6.376527099609375 1.0739999999999998 6.376527099609375 1.0334999999999999 L 6.376527099609375 0.09149999999999991 Q 6.376527099609375 0.05249999999999977 6.402027099609375 0.026249999999999885 Q 6.427527099609375 -2.220446049250313e-16 6.466527099609375 -2.220446049250313e-16 Q 6.505527099609375 -2.220446049250313e-16 6.531027099609375 0.026249999999999885 Q 6.556527099609375 0.05249999999999977 6.556527099609375 0.09149999999999991 L 6.556527099609375 0.4724999999999998 L 6.531027099609375 0.45899999999999985 Q 6.531027099609375 0.4394999999999999 6.552027099609375 0.41174999999999984 Q 6.573027099609375 0.3839999999999999 6.609027099609375 0.35624999999999984 Q 6.645027099609375 0.3284999999999999 6.692277099609375 0.3104999999999999 Q 6.739527099609375 0.29249999999999987 6.792027099609375 0.29249999999999987 M 6.769527099609375 0.4574999999999999 Q 6.703527099609375 0.4574999999999999 6.654027099609375 0.4904999999999998 Q 6.604527099609375 0.5234999999999999 6.576777099609375 0.5797499999999999 Q 6.549027099609376 0.6359999999999999 6.549027099609376 0.7079999999999999 Q 6.549027099609376 0.7784999999999999 6.576777099609375 0.8362499999999999 Q 6.604527099609375 0.8939999999999999 6.654027099609375 0.9269999999999998 Q 6.703527099609375 0.9599999999999999 6.769527099609375 0.9599999999999999 Q 6.835527099609375 0.9599999999999999 6.884277099609375 0.9269999999999998 Q 6.933027099609375 0.8939999999999999 6.960777099609375 0.8362499999999999 Q 6.988527099609375 0.7784999999999999 6.988527099609375 0.7079999999999999 Q 6.988527099609375 0.6359999999999999 6.960777099609375 0.5797499999999999 Q 6.933027099609375 0.5234999999999999 6.884277099609375 0.4904999999999998 Q 6.835527099609375 0.4574999999999999 6.769527099609375 0.4574999999999999" fill="#f9f9f9" fill-rule="nonzero"></path></g><g></g><g clip-path="url(#SvgjsClipPath1002)"><g clip-path="url(#SvgjsClipPath1000c180a221-edbb-456b-ad23-74937fa968fb)"><path d=" M -0.3999999999999999 0.8838555154699728 L -0.5222221918575761 0.9421742691877826 L -0.5223137440612148 0.3178797925759383 L -0.5864002866082583 0.28748446096791186 L -0.5864002866082583 0.5414502738614821 L -0.8308446703234109 0.6732854471011149 L -0.8309362225270496 0.9206595013327037 L -0.9531584143846257 0.8625238520221712 L -0.9531584143846257 0.6519537836533132 L -0.7086224784658347 0.5201186104136805 L -0.7087140306694734 0.22934881165737936 L -0.9965541589093381 0.09247826721762174 L -1.0652183116383136 0.14283197921887036 L -1.0652183116383136 0.38004373884657067 L -1.1874405034958897 0.44596132546638706 L -1.1874405034958897 0.13715574259327507 L -0.9633207089885141 -0.02708891073443409 L -0.40009155220363857 0.2406097327049313 L -0.3999999999999999 0.8838555154699728 Z" fill="#aac527" transform="matrix(1,0,0,1,0,0)" fill-rule="evenodd"></path></g><g clip-path="url(#SvgjsClipPath1000c180a221-edbb-456b-ad23-74937fa968fb)"><path d=" M -0.7086224784658347 0.7299562611534293 L -0.7086224784658347 0.9671680207811296 L -0.77728663119481 1.0174301805787398 L -1.0650352072310363 0.8806511883426206 L -1.0652183116383136 0.5898813895863195 L -0.8206823757195225 0.4579546641430481 L -0.8205908235158839 0.24747614797782885 L -0.9429045675770986 0.18924894646365772 L -0.9429961197807373 0.4366230006952464 L -1.1874405034958897 0.5684581739348792 L -1.1874405034958897 0.8225155390320881 L -1.2515270460429335 0.7921202074240616 L -1.2516185982465722 0.16782573081221738 L -1.3738407901041483 0.22605293232638857 L -1.3737492379005096 0.8692987150914302 L -0.8105200811156342 1.137088910734434 L -0.5864002866082583 0.9728442574067251 L -0.5864002866082583 0.664038674533613 L -0.7086224784658347 0.7299562611534293 Z" fill="#aac527" transform="matrix(1,0,0,1,0,0)" fill-rule="evenodd"></path></g></g></g><defs><clipPath id="SvgjsClipPath1002"><path d=" M -1.3738407901041483 -0.02708891073443409 h 0.9738407901041484 v 1.164177821468868 h -0.9738407901041484 Z"></path></clipPath><clipPath id="SvgjsClipPath1000c180a221-edbb-456b-ad23-74937fa968fb"><path d=" M -1.3738407901041483 -0.02708891073443409 L -0.3999999999999999 -0.02708891073443409 L -0.3999999999999999 1.137088910734434 L -1.3738407901041483 1.137088910734434 Z"></path></clipPath></defs></svg>